<svg width="360" height="360" viewBox="0 0 360 360" fill="none" xmlns="http://www.w3.org/2000/svg">
<path d="M120.435 327.96C129.93 338.805 143.55 345 158.025 345C176.34 345 191.7 332.205 194.565 314.58C196.71 301.35 191.205 284.04 169.29 275.175C160.89 271.755 153.03 268.17 148.8 266.25C147.315 265.575 142.38 263.655 142.305 257.025C142.275 255.06 143.85 250.41 150.03 248.37C160.98 244.83 170.91 251.37 174.195 253.875L187.095 237.18C181.08 231.645 164.01 220.335 144.15 226.89C132.21 230.835 123.765 241.155 122.085 253.83C120.495 266.1 125.535 277.305 135.9 284.565C135.9 284.565 148.47 290.7 162.195 296.265C165.405 297.555 175.77 302.4 174.45 310.65C173.475 316.515 167.07 322.575 158.01 322.575C149.43 322.575 141.15 318.975 135.555 312.9L120.42 327.99L120.435 327.96ZM360 345H304.005V225H328.005V321.015C328.005 321.015 343.425 321.015 360 321.015V345ZM295.965 339.015L280.995 324.045C283.47 319.035 285 313.47 285 307.515V262.515C285 241.8 268.215 225.015 247.5 225.015C226.785 225.015 210 241.8 210 262.515V307.515C210 328.23 226.785 345.015 247.5 345.015C253.47 345.015 259.035 343.5 264.03 341.01L279 355.98L295.965 339.015ZM234 307.5V262.5C234 255.06 240.06 249 247.5 249C254.94 249 261 255.06 261 262.5V307.5C261 314.94 254.94 321 247.5 321C240.06 321 234 314.94 234 307.5ZM0 67.5C0 30.225 57.09 0 127.5 0C197.91 0 255 30.225 255 67.5C255 104.775 197.91 135 127.5 135C57.09 135 0 104.775 0 67.5ZM127.5 165C181.2 165 226.86 149.94 255 126V158.505C255 182.82 200.475 210 127.5 210C54.525 210 0 182.82 0 158.505V126C28.14 149.94 73.8 165 127.5 165ZM0 233.49V207.39C21.315 222.54 52.71 233.415 90 237.81V282.48C36.63 275.235 0 253.41 0 233.49ZM90 357.375C41.115 350.505 0 330 0 296.79V282.39C21.315 297.54 52.71 308.415 90 312.81V357.375Z" fill="white"/>
</svg>
